<svg viewBox="0 0 382.051 93.96" height="93.96" width="382.051" style="width:382.050687px;height:93.96px;position:absolute;top:50%;left:50%;transform:translate(-50%,-50%) scale(.93574);z-index:0;cursor:pointer;overflow:visible">
  <path d="M10.404 64.511 5.275 45.266l-.732 1.22v18.172H0V29.83h4.543v7.571l3.028-7.57h5.618l-4.64 10.062 6.593 24.618zm23.041.293h-4.982l-2.687-7.376h-1.074v7.376h-4.64V29.83h7.277a5.795 5.795 0 0 1 5.813 5.813v15.973c0 2.1-1.074 3.907-2.735 4.933zm-8.743-30.333v18.317h2.637c.635 0 1.173-.537 1.173-1.172V35.643c0-.635-.538-1.172-1.173-1.172zm25.874 30.236L48.817 52.64h-4.933l-1.612 12.066h-4.69l5.276-34.926h6.301l6.106 34.926zM44.519 48h3.614l-1.856-12.7zm29.049-18.269h8.157V64.61h-4.591v-27.6l-4.348 27.696H70.98l-.44-.098-.39.098h-1.81L64.043 37.01v27.598h-4.64V29.732h8.206l2.98 19.734zM91.285 57.38v7.278h-4.64V29.83h7.228a5.837 5.837 0 0 1 5.813 5.862v15.875a5.795 5.795 0 0 1-5.813 5.813zm0-22.91v18.27h2.588c.684 0 1.173-.49 1.173-1.173V35.692c0-.684-.489-1.221-1.173-1.221zM111.297 65c-3.712 0-6.692-3.029-6.692-6.692v-5.325h4.738v5.325c0 1.074.88 1.954 1.954 1.954s1.905-.88 1.905-1.954v-4.64l-8.597-11.87V35.74c0-3.713 2.98-6.741 6.692-6.741 3.663 0 6.643 3.028 6.643 6.74v5.276h-4.738V35.74c0-1.124-.83-1.954-1.905-1.954s-1.954.83-1.954 1.954v4.445l8.597 11.87v6.252c0 3.663-2.98 6.692-6.643 6.692" fill="#071e3d"/>
  <g xmlns="http://www.w3.org/2000/svg" transform="translate(119.574 -906.75)scale(.95145)" fill="#071e3d">
    <rect width="58.031" height="18.192" x="21.961" y="953.019" ry="5.086" rx="2.32" fill-rule="evenodd"/>
    <path style="text-indent:0;text-transform:none;direction:ltr;block-progression:tb;baseline-shift:baseline" d="M27.618 965.21v1.472s0 1.345-.162 2.997c-.16 1.652-.553 3.627-1.013 4.488-1.38 2.583-7.07 5.664-7.07 14.18l-.007 54.715c0 4.762 3.722 8.711 8.38 8.711h46.458c4.658 0 8.376-3.95 8.377-8.711l.003-54.714c0-4.271-1.515-7.199-3.163-9.308s-3.288-3.523-3.877-4.797c-1.393-3.008-1.472-7.56-1.472-7.56v-1.473zm2.896 2.941h40.678c.108 1.725.449 4.682 1.672 7.325 1.012 2.185 2.825 3.571 4.23 5.37 1.405 1.8 2.541 3.887 2.54 7.502l-.006 54.714c0 3.265-2.435 5.774-5.424 5.774H27.746c-2.989 0-5.428-2.51-5.428-5.774l.004-54.714c0-7.255 4.512-8.655 6.724-12.797.89-1.664 1.17-3.781 1.346-5.587.07-.706.097-1.276.122-1.813" overflow="visible"/>
    <path style="text-indent:0;text-transform:none;direction:ltr;block-progression:tb;baseline-shift:baseline" d="M33.736 994.321v38.39H80.8v-1.524H35.267v-35.344H81.51v-1.522z" overflow="visible"/>
    <path d="m45.12 1024.108-2.3-4.11q.938-.291 1.465-.956.527-.664.536-1.636-.057-1.623-1.15-2.276-1.094-.651-2.54-.627h-3.677v9.605h2.288v-3.812h.79l2.083 3.812zm-2.6-6.661q-.036.713-.564.95a2.5 2.5 0 0 1-1.125.217h-1.103v-2.239h1.24q.552-.016 1.036.2.484.218.516.872"/>
    <path d="M42.573 1024.024h2.504l2.816 5.383h-2.504z"/>
    <path d="M47.91 1021.282h-2.504l-4.404 8.125h2.505z"/>
    <path style="text-indent:0;text-transform:none;direction:ltr;block-progression:tb;baseline-shift:baseline" d="M37.047 997.469v9.613h43.894v-.725H37.775v-8.164H81.61v-.724z" overflow="visible"/>
    <path d="m21.89 1011.57.041 19.765.042 12.935.359.9c.483 1.209 1.853 3.342 2.993 3.782l.82.317 24.763.01c18.029.012 24.144-.034 24.525-.166 1.514-.527 2.17-2.547 2.793-4.128.329-.835.343-1.046.397-6.597l.054-5.359H33.406v-21.454H21.89z" fill-rule="evenodd"/>
  </g>
  <path d="M222.763 57.378v7.471H218V29.1h7.42a5.99 5.99 0 0 1 5.967 6.018v16.295a5.95 5.95 0 0 1-5.967 5.966zm0-23.515v18.752h2.657c.702 0 1.204-.501 1.204-1.203V35.117c0-.702-.502-1.254-1.204-1.254zm22.698-4.763h4.763v35.75h-4.763V45.946H241.2v18.902h-4.763V29.1h4.763v12.134h4.262zm22.297 35.8-1.805-12.385h-5.064l-1.655 12.384h-4.813l5.415-35.85h6.468l6.267 35.85zm-6.217-17.148h3.71l-1.905-13.037zm29.116 17.247h-5.115l-2.757-7.57h-1.103v7.57h-4.764V29.1h7.471a5.95 5.95 0 0 1 5.967 5.967v16.396a5.9 5.9 0 0 1-2.808 5.064zm-8.975-31.136v18.802h2.707a1.22 1.22 0 0 0 1.204-1.203V35.066a1.22 1.22 0 0 0-1.204-1.203zM310.246 29h8.373v35.799h-4.713V36.47l-4.462 28.43h-1.855l-.452-.101-.4.1h-1.856L300.47 36.47V64.8h-4.763V29h8.423l3.059 20.257zm25.706 35.9-1.805-12.385h-5.064l-1.654 12.384h-4.814l5.415-35.85h6.468l6.268 35.85zm-6.217-17.148h3.71l-1.905-13.037zm22.798 17.047a6.72 6.72 0 0 1-6.718-6.719V35.818a6.719 6.719 0 0 1 13.437 0v2.006h-4.763v-2.006c0-1.052-.903-1.955-1.956-1.955s-1.955.903-1.955 1.955V58.08c0 1.053.902 1.956 1.955 1.956s1.956-.903 1.956-1.956v-3.209h4.763v3.21a6.72 6.72 0 0 1-6.719 6.718m29.517-35.7-6.718 21.761V64.9h-4.864V50.81l-6.167-21.71h5.014l3.66 12.886 4.011-12.886z" fill="#071e3d"/>
</svg>
